<svg width="36" height="148" viewBox="0 0 36 148" fill="none" xmlns="http://www.w3.org/2000/svg">
<path d="M14.1077 0.000732422L5.80867 8.29972C5.80867 3.71632 9.52426 0.00073142 14.1077 0.000732422Z" fill="#66D4C1"/>
<path d="M21.448 0.000732422L29.747 8.29973C29.747 3.71632 26.0314 0.000733424 21.448 0.000732422Z" fill="#66D4C1"/>
<rect x="17.7837" width="16.598" height="16.598" transform="rotate(45 17.7837 0)" fill="#FD7E77"/>
<rect x="17.7837" y="47.423" width="16.598" height="16.598" transform="rotate(45 17.7837 47.423)" fill="#66D4C1"/>
<rect x="17.6643" y="23.7115" width="16.598" height="16.598" transform="rotate(45 17.6643 23.7115)" fill="#F8CE61"/>
<path d="M29.5798 17.7836L29.5798 29.5201L23.7116 23.6519L29.5798 17.7836Z" fill="#66D4C1"/>
<path d="M29.5796 65.2066L29.5796 76.9431L23.7113 71.0748L29.5796 65.2066Z" fill="#F8CE61"/>
<path d="M29.5796 41.4951L29.5796 53.2317L23.7113 47.3634L29.5796 41.4951Z" fill="#FF8078"/>
<path d="M5.86816 29.52L5.86816 17.7834L11.7364 23.6517L5.86816 29.52Z" fill="#66D4C1"/>
<path d="M5.86816 76.943L5.86816 65.2064L11.7364 71.0747L5.86816 76.943Z" fill="#F8CE61"/>
<path d="M5.86816 53.2315L5.86816 41.495L11.7364 47.3633L5.86816 53.2315Z" fill="#FF8078"/>
<rect x="17.7837" y="5.33521" width="8.85037" height="8.85037" transform="rotate(45 17.7837 5.33521)" fill="#1D262D"/>
<rect x="17.7837" y="52.7579" width="8.85037" height="8.85037" transform="rotate(45 17.7837 52.7579)" fill="#1D262D"/>
<rect x="17.6643" y="29.0468" width="8.85037" height="8.85037" transform="rotate(45 17.6643 29.0468)" fill="#1D262D"/>
<rect x="17.7837" y="7.51746" width="5.76386" height="5.76386" transform="rotate(45 17.7837 7.51746)" fill="#F8CE61"/>
<rect x="17.7837" y="54.9402" width="5.76386" height="5.76386" transform="rotate(45 17.7837 54.9402)" fill="#F8CE61"/>
<rect x="17.6643" y="31.4176" width="5.76386" height="5.76386" transform="rotate(45 17.6643 31.4176)" fill="#66D4C1"/>
<rect x="17.7837" y="70.9119" width="16.598" height="16.598" transform="rotate(45 17.7837 70.9119)" fill="#FD7E77"/>
<rect x="17.7837" y="118.335" width="16.598" height="16.598" transform="rotate(45 17.7837 118.335)" fill="#66D4C1"/>
<rect x="17.6643" y="94.6234" width="16.598" height="16.598" transform="rotate(45 17.6643 94.6234)" fill="#F8CE61"/>
<path d="M29.5798 88.6957L29.5798 100.432L23.7116 94.564L29.5798 88.6957Z" fill="#66D4C1"/>
<path d="M29.5796 136.118L29.5796 147.855L23.7113 141.987L29.5796 136.118Z" fill="#F8CE61"/>
<path d="M29.5796 112.407L29.5796 124.144L23.7113 118.275L29.5796 112.407Z" fill="#FF8078"/>
<path d="M5.86816 100.432L5.86816 88.6957L11.7364 94.564L5.86816 100.432Z" fill="#66D4C1"/>
<path d="M5.86816 147.855L5.86816 136.118L11.7364 141.987L5.86816 147.855Z" fill="#F8CE61"/>
<path d="M5.86816 124.143L5.86816 112.407L11.7364 118.275L5.86816 124.143Z" fill="#FF8078"/>
<rect x="17.7837" y="76.2471" width="8.85037" height="8.85037" transform="rotate(45 17.7837 76.2471)" fill="#1D262D"/>
<rect x="17.7837" y="123.67" width="8.85037" height="8.85037" transform="rotate(45 17.7837 123.67)" fill="#1D262D"/>
<rect x="17.6643" y="99.9583" width="8.85037" height="8.85037" transform="rotate(45 17.6643 99.9583)" fill="#1D262D"/>
<rect x="17.7837" y="78.4293" width="5.76386" height="5.76386" transform="rotate(45 17.7837 78.4293)" fill="#F8CE61"/>
<rect x="17.7837" y="125.852" width="5.76386" height="5.76386" transform="rotate(45 17.7837 125.852)" fill="#F8CE61"/>
<rect x="17.6643" y="102.329" width="5.76386" height="5.76386" transform="rotate(45 17.6643 102.329)" fill="#66D4C1"/>
</svg>
