<svg width="102" height="128" viewBox="0 0 102 128" fill="none" xmlns="http://www.w3.org/2000/svg">
<path d="M12.5718 100.091C11.5955 100.174 9.33305 100.889 8.09378 103.091C6.54469 105.842 6.14113 111.619 3.35538 112.245M12.5546 100.07C11.5884 99.9072 9.21947 100.037 7.47324 101.861C5.29046 104.141 3.46717 109.636 0.613525 109.549M19.4804 88.5816L24.7291 93.8395M30.2601 112.182C29.3965 112.645 27.6028 114.201 27.3366 116.714C27.0037 119.855 28.9201 125.319 26.6106 127M30.2359 112.169C29.2844 112.403 27.1612 113.464 26.2802 115.832C25.1789 118.792 25.6806 124.561 23.0265 125.615M32.0457 98.8713L38.9456 101.613M10.584 98.5129L14.3843 102.463C15.0032 103.106 16.0256 103.125 16.6678 102.505L100.347 21.7105C100.989 21.0904 101.008 20.0662 100.389 19.4229L96.5883 15.4732C95.9694 14.8299 94.947 14.8111 94.3048 15.4311L10.626 96.2253C9.98384 96.8454 9.96502 97.8696 10.584 98.5129ZM27.8104 111.522L32.8626 113.639C33.6855 113.983 34.6316 113.594 34.9756 112.77L79.8088 5.35848C80.1528 4.53414 79.7647 3.58646 78.9418 3.24178L73.8895 1.12564C73.0666 0.780966 72.1206 1.16981 71.7765 1.99415L26.9434 109.406C26.5993 110.23 26.9875 111.178 27.8104 111.522Z" stroke="#EFD155"/>
</svg>
