<svg width="104" height="104" viewBox="0 0 104 104" fill="none" xmlns="http://www.w3.org/2000/svg">
<path d="M4.01703 93.809C-1.98296 82.8089 -1.48297 10.809 7.01703 5.30898C15.517 -0.191019 94.517 -3.19109 100.017 5.30898C105.517 13.8091 98.017 29.309 100.017 50.309C102.017 71.309 106.5 85 102 96C97.5 107 10.017 104.809 4.01703 93.809Z" fill="#E63A27"/>
<path d="M38.9849 54V30.9C36.9689 32.496 34.7149 33.532 32.2229 34.008V28.926C35.0789 28.254 37.6409 26.812 39.9089 24.6H44.2769V54H38.9849ZM69.1789 50.262C67.0509 52.978 64.1389 54.336 60.4429 54.336C56.7469 54.336 53.8349 52.978 51.7069 50.262C49.5789 47.546 48.5149 43.892 48.5149 39.3C48.5149 34.708 49.5789 31.054 51.7069 28.338C53.8349 25.622 56.7469 24.264 60.4429 24.264C64.1389 24.264 67.0509 25.622 69.1789 28.338C71.3069 31.054 72.3709 34.708 72.3709 39.3C72.3709 43.892 71.3069 47.546 69.1789 50.262ZM55.8649 46.734C56.9289 48.498 58.4549 49.38 60.4429 49.38C62.4309 49.38 63.9569 48.498 65.0209 46.734C66.1129 44.97 66.6589 42.492 66.6589 39.3C66.6589 36.108 66.1129 33.63 65.0209 31.866C63.9569 30.074 62.4309 29.178 60.4429 29.178C58.4549 29.178 56.9289 30.074 55.8649 31.866C54.8009 33.63 54.2689 36.108 54.2689 39.3C54.2689 42.492 54.8009 44.97 55.8649 46.734Z" fill="#EFD155"/>
<path d="M30.7026 80V64.6H35.5426C37.8012 64.6 39.6712 65.2747 41.1526 66.624C42.6339 67.9733 43.3746 69.8653 43.3746 72.3C43.3746 74.7347 42.6339 76.6267 41.1526 77.976C39.6712 79.3253 37.8012 80 35.5426 80H30.7026ZM33.2326 77.734H35.3666C36.8919 77.734 38.1679 77.294 39.1946 76.414C40.2212 75.5193 40.7346 74.148 40.7346 72.3C40.7346 70.452 40.2212 69.0807 39.1946 68.186C38.1679 67.2913 36.8919 66.844 35.3666 66.844H33.2326V77.734ZM49.8127 68.736C51.25 68.736 52.4013 69.1247 53.2667 69.902C54.132 70.6647 54.5647 71.728 54.5647 73.092V80H52.2107V78.306C51.888 78.8633 51.4113 79.318 50.7807 79.67C50.15 80.0073 49.468 80.176 48.7347 80.176C47.6347 80.176 46.74 79.868 46.0507 79.252C45.3613 78.636 45.0167 77.8513 45.0167 76.898C45.0167 74.786 46.718 73.554 50.1207 73.202L52.2107 72.982V72.828C52.2107 72.1533 51.9907 71.618 51.5507 71.222C51.1253 70.826 50.546 70.628 49.8127 70.628C49.138 70.628 48.5807 70.8187 48.1407 71.2C47.7007 71.5667 47.444 72.08 47.3707 72.74L45.2147 72.344C45.3907 71.2587 45.904 70.386 46.7547 69.726C47.6053 69.066 48.6247 68.736 49.8127 68.736ZM49.2187 78.328C50.1427 78.328 50.8687 78.042 51.3967 77.47C51.9247 76.898 52.196 76.15 52.2107 75.226V74.764L50.0987 75.006C48.28 75.2113 47.3707 75.82 47.3707 76.832C47.3707 77.272 47.5393 77.6313 47.8767 77.91C48.214 78.1887 48.6613 78.328 49.2187 78.328ZM64.2359 68.912H66.6999L60.8699 84.004H58.4059L60.0779 79.67L55.7659 68.912H58.3619L61.2659 76.59L64.2359 68.912ZM71.8893 80.176C70.6427 80.176 69.6087 79.8607 68.7873 79.23C67.9807 78.5847 67.4307 77.8147 67.1373 76.92L69.1173 76.084C69.572 77.536 70.496 78.262 71.8893 78.262C72.4467 78.262 72.9013 78.1227 73.2533 77.844C73.62 77.5653 73.8033 77.2207 73.8033 76.81C73.8033 76.37 73.5907 76.0253 73.1653 75.776C72.74 75.5267 72.2193 75.336 71.6033 75.204C71.002 75.0573 70.4007 74.8887 69.7993 74.698C69.198 74.4927 68.6847 74.148 68.2593 73.664C67.834 73.18 67.6213 72.5493 67.6213 71.772C67.6213 70.892 67.9733 70.166 68.6773 69.594C69.396 69.022 70.3493 68.736 71.5373 68.736C72.5787 68.736 73.5027 68.9927 74.3093 69.506C75.116 70.0047 75.6367 70.6573 75.8713 71.464L73.8913 72.3C73.7593 71.772 73.466 71.354 73.0113 71.046C72.5713 70.738 72.0873 70.584 71.5593 70.584C71.0313 70.584 70.6133 70.6867 70.3053 70.892C69.9973 71.0827 69.8433 71.3613 69.8433 71.728C69.8433 72.1093 70.056 72.41 70.4813 72.63C70.9067 72.8353 71.42 73.004 72.0213 73.136C72.6373 73.268 73.2533 73.4367 73.8693 73.642C74.4853 73.8473 75.006 74.214 75.4313 74.742C75.8567 75.27 76.0693 75.952 76.0693 76.788C76.0693 77.756 75.6807 78.5627 74.9033 79.208C74.126 79.8533 73.1213 80.176 71.8893 80.176Z" fill="#EFD155"/>
</svg>
