<svg width="30" height="154" viewBox="0 0 30 154" fill="none" xmlns="http://www.w3.org/2000/svg">
<path d="M0 13.5558L5.27171 18.8275C2.36022 18.8275 0 16.4673 0 13.5558Z" fill="#498374"/>
<path d="M0 9.03723L5.27171 3.76552C2.36022 3.76552 0 6.12575 0 9.03723Z" fill="#498374"/>
<path d="M0 88.5558L5.27171 93.8275C2.36022 93.8275 0 91.4673 0 88.5558Z" fill="#498374"/>
<path d="M0 84.0372L5.27171 78.7655C2.36022 78.7655 0 81.1257 0 84.0372Z" fill="#498374"/>
<rect y="11.2207" width="10.5434" height="10.5434" transform="rotate(-45 0 11.2207)" fill="#BB535F"/>
<rect x="15.0625" y="11.2966" width="10.5434" height="10.5434" transform="rotate(-45 15.0625 11.2966)" fill="#E7B57D"/>
<path d="M11.2966 3.72766H18.752L15.0243 7.45532L11.2966 3.72766Z" fill="#498374"/>
<path d="M18.7522 18.7897H11.2969L15.0245 15.062L18.7522 18.7897Z" fill="#498374"/>
<rect x="3.38965" y="11.2207" width="5.62196" height="5.62196" transform="rotate(-45 3.38965 11.2207)" fill="#1D262D"/>
<rect x="18.4512" y="11.2966" width="5.62196" height="5.62196" transform="rotate(-45 18.4512 11.2966)" fill="#1D262D"/>
<rect x="4.77539" y="11.2207" width="3.66134" height="3.66134" transform="rotate(-45 4.77539 11.2207)" fill="#E7B57D"/>
<rect x="19.957" y="11.2966" width="3.66134" height="3.66134" transform="rotate(-45 19.957 11.2966)" fill="#498374"/>
<rect y="86.2208" width="10.5434" height="10.5434" transform="rotate(-45 0 86.2208)" fill="#BB535F"/>
<rect x="15.0625" y="86.2965" width="10.5434" height="10.5434" transform="rotate(-45 15.0625 86.2965)" fill="#E7B57D"/>
<path d="M11.2966 78.7277H18.752L15.0243 82.4553L11.2966 78.7277Z" fill="#498374"/>
<path d="M18.7522 93.7897H11.2969L15.0245 90.062L18.7522 93.7897Z" fill="#498374"/>
<rect x="3.38965" y="86.2208" width="5.62196" height="5.62196" transform="rotate(-45 3.38965 86.2208)" fill="#1D262D"/>
<rect x="18.4512" y="86.2965" width="5.62196" height="5.62196" transform="rotate(-45 18.4512 86.2965)" fill="#1D262D"/>
<rect x="4.77539" y="86.2208" width="3.66134" height="3.66134" transform="rotate(-45 4.77539 86.2208)" fill="#E7B57D"/>
<rect x="19.957" y="86.2965" width="3.66134" height="3.66134" transform="rotate(-45 19.957 86.2965)" fill="#498374"/>
<path d="M0 32.3834L5.27171 37.6551C2.36022 37.6551 0 35.2949 0 32.3834Z" fill="#498374"/>
<path d="M0 27.8647L5.27171 22.593C2.36022 22.593 0 24.9533 0 27.8647Z" fill="#498374"/>
<path d="M0 107.383L5.27171 112.655C2.36022 112.655 0 110.295 0 107.383Z" fill="#498374"/>
<path d="M0 102.865L5.27171 97.593C2.36022 97.593 0 99.9533 0 102.865Z" fill="#498374"/>
<rect y="30.0483" width="10.5434" height="10.5434" transform="rotate(-45 0 30.0483)" fill="#BB535F"/>
<rect x="15.0625" y="30.124" width="10.5434" height="10.5434" transform="rotate(-45 15.0625 30.124)" fill="#E7B57D"/>
<path d="M11.2966 22.5553H18.752L15.0243 26.283L11.2966 22.5553Z" fill="#498374"/>
<path d="M18.7522 37.6173H11.2969L15.0245 33.8896L18.7522 37.6173Z" fill="#498374"/>
<rect x="3.38965" y="30.0483" width="5.62196" height="5.62196" transform="rotate(-45 3.38965 30.0483)" fill="#1D262D"/>
<rect x="18.4512" y="30.124" width="5.62196" height="5.62196" transform="rotate(-45 18.4512 30.124)" fill="#1D262D"/>
<rect x="4.77539" y="30.0483" width="3.66134" height="3.66134" transform="rotate(-45 4.77539 30.0483)" fill="#E7B57D"/>
<rect x="19.957" y="30.124" width="3.66134" height="3.66134" transform="rotate(-45 19.957 30.124)" fill="#498374"/>
<rect y="105.048" width="10.5434" height="10.5434" transform="rotate(-45 0 105.048)" fill="#BB535F"/>
<rect x="15.0625" y="105.124" width="10.5434" height="10.5434" transform="rotate(-45 15.0625 105.124)" fill="#E7B57D"/>
<path d="M11.2966 97.5553H18.752L15.0243 101.283L11.2966 97.5553Z" fill="#498374"/>
<path d="M18.7522 112.617H11.2969L15.0245 108.89L18.7522 112.617Z" fill="#498374"/>
<rect x="3.38965" y="105.048" width="5.62196" height="5.62196" transform="rotate(-45 3.38965 105.048)" fill="#1D262D"/>
<rect x="18.4512" y="105.124" width="5.62196" height="5.62196" transform="rotate(-45 18.4512 105.124)" fill="#1D262D"/>
<rect x="4.77539" y="105.048" width="3.66134" height="3.66134" transform="rotate(-45 4.77539 105.048)" fill="#E7B57D"/>
<rect x="19.957" y="105.124" width="3.66134" height="3.66134" transform="rotate(-45 19.957 105.124)" fill="#498374"/>
<path d="M0 51.2109L5.27171 56.4826C2.36022 56.4826 0 54.1224 0 51.2109Z" fill="#498374"/>
<path d="M0 46.6924L5.27171 41.4207C2.36022 41.4207 0 43.7809 0 46.6924Z" fill="#498374"/>
<path d="M0 126.211L5.27171 131.483C2.36022 131.483 0 129.122 0 126.211Z" fill="#498374"/>
<path d="M0 121.692L5.27171 116.421C2.36022 116.421 0 118.781 0 121.692Z" fill="#498374"/>
<rect y="48.876" width="10.5434" height="10.5434" transform="rotate(-45 0 48.876)" fill="#BB535F"/>
<rect x="15.0625" y="48.9517" width="10.5434" height="10.5434" transform="rotate(-45 15.0625 48.9517)" fill="#E7B57D"/>
<path d="M11.2966 41.3828H18.752L15.0243 45.1105L11.2966 41.3828Z" fill="#498374"/>
<path d="M18.7522 56.4448H11.2969L15.0245 52.7172L18.7522 56.4448Z" fill="#498374"/>
<rect x="3.38965" y="48.876" width="5.62196" height="5.62196" transform="rotate(-45 3.38965 48.876)" fill="#1D262D"/>
<rect x="18.4512" y="48.9517" width="5.62196" height="5.62196" transform="rotate(-45 18.4512 48.9517)" fill="#1D262D"/>
<rect x="4.77539" y="48.876" width="3.66134" height="3.66134" transform="rotate(-45 4.77539 48.876)" fill="#E7B57D"/>
<rect x="19.957" y="48.9517" width="3.66134" height="3.66134" transform="rotate(-45 19.957 48.9517)" fill="#498374"/>
<rect y="123.876" width="10.5434" height="10.5434" transform="rotate(-45 0 123.876)" fill="#BB535F"/>
<rect x="15.0625" y="123.952" width="10.5434" height="10.5434" transform="rotate(-45 15.0625 123.952)" fill="#E7B57D"/>
<path d="M11.2966 116.383H18.752L15.0243 120.11L11.2966 116.383Z" fill="#498374"/>
<path d="M18.7522 131.445H11.2969L15.0245 127.717L18.7522 131.445Z" fill="#498374"/>
<rect x="3.38965" y="123.876" width="5.62196" height="5.62196" transform="rotate(-45 3.38965 123.876)" fill="#1D262D"/>
<rect x="18.4512" y="123.952" width="5.62196" height="5.62196" transform="rotate(-45 18.4512 123.952)" fill="#1D262D"/>
<rect x="4.77539" y="123.876" width="3.66134" height="3.66134" transform="rotate(-45 4.77539 123.876)" fill="#E7B57D"/>
<rect x="19.957" y="123.952" width="3.66134" height="3.66134" transform="rotate(-45 19.957 123.952)" fill="#498374"/>
<path d="M0 70.0385L5.27171 75.3102C2.36022 75.3102 0 72.9499 0 70.0385Z" fill="#498374"/>
<path d="M0 65.5199L5.27171 60.2482C2.36022 60.2482 0 62.6084 0 65.5199Z" fill="#498374"/>
<path d="M0 145.038L5.27171 150.31C2.36022 150.31 0 147.95 0 145.038Z" fill="#498374"/>
<path d="M0 140.52L5.27171 135.248C2.36022 135.248 0 137.608 0 140.52Z" fill="#498374"/>
<rect y="67.7035" width="10.5434" height="10.5434" transform="rotate(-45 0 67.7035)" fill="#BB535F"/>
<rect x="15.0625" y="67.7792" width="10.5434" height="10.5434" transform="rotate(-45 15.0625 67.7792)" fill="#E7B57D"/>
<path d="M11.2966 60.2103H18.752L15.0243 63.938L11.2966 60.2103Z" fill="#498374"/>
<path d="M18.7522 75.2723H11.2969L15.0245 71.5447L18.7522 75.2723Z" fill="#498374"/>
<rect x="3.38965" y="67.7035" width="5.62196" height="5.62196" transform="rotate(-45 3.38965 67.7035)" fill="#1D262D"/>
<rect x="18.4512" y="67.7792" width="5.62196" height="5.62196" transform="rotate(-45 18.4512 67.7792)" fill="#1D262D"/>
<rect x="4.77539" y="67.7035" width="3.66134" height="3.66134" transform="rotate(-45 4.77539 67.7035)" fill="#E7B57D"/>
<rect x="19.957" y="67.7792" width="3.66134" height="3.66134" transform="rotate(-45 19.957 67.7792)" fill="#498374"/>
<rect y="142.703" width="10.5434" height="10.5434" transform="rotate(-45 0 142.703)" fill="#BB535F"/>
<rect x="15.0625" y="142.779" width="10.5434" height="10.5434" transform="rotate(-45 15.0625 142.779)" fill="#E7B57D"/>
<path d="M11.2966 135.21H18.752L15.0243 138.938L11.2966 135.21Z" fill="#498374"/>
<path d="M18.7522 150.272H11.2969L15.0245 146.545L18.7522 150.272Z" fill="#498374"/>
<rect x="3.38965" y="142.703" width="5.62196" height="5.62196" transform="rotate(-45 3.38965 142.703)" fill="#1D262D"/>
<rect x="18.4512" y="142.779" width="5.62196" height="5.62196" transform="rotate(-45 18.4512 142.779)" fill="#1D262D"/>
<rect x="4.77539" y="142.703" width="3.66134" height="3.66134" transform="rotate(-45 4.77539 142.703)" fill="#E7B57D"/>
<rect x="19.957" y="142.779" width="3.66134" height="3.66134" transform="rotate(-45 19.957 142.779)" fill="#498374"/>
</svg>
