<svg width="29" height="29" viewBox="0 0 29 29" fill="none" xmlns="http://www.w3.org/2000/svg">
<path d="M8.52699 0C3.84642 0 0 3.84126 0 8.52699V20.473C0 25.1536 3.84126 29 8.52699 29H20.473C25.1536 29 29 25.1587 29 20.473V8.52699C29 3.84642 25.1587 0 20.473 0H8.52699ZM8.52699 2.63636H20.473C23.7324 2.63636 26.3636 5.26757 26.3636 8.52699V20.473C26.3636 23.7324 23.7324 26.3636 20.473 26.3636H8.52699C5.26757 26.3636 2.63636 23.7324 2.63636 20.473V8.52699C2.63636 5.26757 5.26757 2.63636 8.52699 2.63636ZM22.2855 5.51989C21.6213 5.51989 21.0909 6.05024 21.0909 6.71449C21.0909 7.37873 21.6213 7.90909 22.2855 7.90909C22.9498 7.90909 23.4801 7.37873 23.4801 6.71449C23.4801 6.05024 22.9498 5.51989 22.2855 5.51989ZM14.5 6.59091C10.149 6.59091 6.59091 10.149 6.59091 14.5C6.59091 18.851 10.149 22.4091 14.5 22.4091C18.851 22.4091 22.4091 18.851 22.4091 14.5C22.4091 10.149 18.851 6.59091 14.5 6.59091ZM14.5 9.22727C17.4299 9.22727 19.7727 11.5701 19.7727 14.5C19.7727 17.4299 17.4299 19.7727 14.5 19.7727C11.5701 19.7727 9.22727 17.4299 9.22727 14.5C9.22727 11.5701 11.5701 9.22727 14.5 9.22727Z" fill="white"/>
</svg>
